<?xml version="1.0" encoding="UTF-8"?>
<svg width="1e3" height="1e3" version="1.1" viewBox="0 0 264.58 264.58" xmlns="http://www.w3.org/2000/svg">
<g display="none">
<rect x="-.66184" y="-.62964" width="265.33" height="267.36" fill="#fff"/>
</g>
<g>
<path d="m152.16 26.464 13.966-12.217v231.65h-13.926z" fill="#322ca0"/>
<path d="m173.99 31.404 8.863 8.1403v206.02h-8.7874z" fill="#322ca0"/>
<path d="m57.776 15.951 173.19 46.405-0.74498 8.373-178.81-47.912v-5.725z" fill="#322ca0"/>
<path d="m200.29 51v27.025l24.282 6.5074 8.9088-5.1443v-26.303l-24.5-6.5659z" fill="#322ca0"/>
<path d="m42.397 133.53 49.656-92.172-42.839 87.807s-2.6421 1.637-6.817 4.3648z" fill="#3f37c9"/>
<path d="m141.71 133.53-49.656-92.172 42.839 87.807s2.6421 1.637 6.817 4.3648z" fill="#322ca0"/>
<path d="m31.075 250.34h202.43l-22.625-6.9336h-159.48z" fill="#322ca0"/>
<path d="m92.058 233.93c33.889-15.79 44.538-30.015 49.569-96.883-17.188-10.551-33.692-17.922-49.347-21.339-18.833 5.4205-34.991 12.664-49.726 20.877 2.8691 75.5 26.986 83.897 49.504 97.345z" fill="#322ca0"/>
<path d="m92.058 233.93 0.22242-118.22c-18.833 5.4205-34.991 12.664-49.726 20.877 2.8691 75.5 26.986 83.897 49.504 97.345z" fill="#3f37c9"/>
</g>
</svg>
